<?xml version="1.0" encoding="utf-8"?>
<!-- Generator: Adobe Illustrator 24.0.2, SVG Export Plug-In . SVG Version: 6.00 Build 0)  -->
<svg version="1.1" id="격리_모드" xmlns="http://www.w3.org/2000/svg" xmlns:xlink="http://www.w3.org/1999/xlink" x="0px"
	 y="0px" viewBox="0 0 48.2 48.2" enable-background="new 0 0 48.2 48.2" xml:space="preserve">
<path d="M12.3,33.1h10.2v1.5H12.3V33.1z M20.5,22.3h-8.3v1.5h8.3V22.3z M22.2,27.7h-10v1.5h10
	C22.2,29.2,22.2,27.7,22.2,27.7z M12.3,18.5H24v-1.5H12.3V18.5z M34.8,28.6v12.5h-28v-34h28v7.2c3.7,0.3,6.5,3.4,6.5,7.1
	S38.5,28.3,34.8,28.6z M33.3,39.6v-11c-3.6-0.4-6.3-3.4-6.3-7.1s2.8-6.7,6.3-7.1V8.6h-25v31H33.3z M38.9,18.6
	c-0.2-0.1-0.3-0.2-0.5-0.2s-0.5,0.1-0.6,0.3l-4.4,5.2l-2.7-3c-0.2-0.2-0.4-0.3-0.6-0.3c-0.2,0-0.4,0.1-0.6,0.2
	c-0.3,0.3-0.4,0.8,0,1.2l3.4,3.7c0.2,0.2,0.4,0.3,0.6,0.3l0,0c0.2,0,0.5-0.1,0.6-0.3l5-5.9C39.3,19.4,39.2,18.8,38.9,18.6z"/>
</svg>
