<?xml version="1.0" encoding="utf-8"?>
<!-- Generator: Adobe Illustrator 24.0.2, SVG Export Plug-In . SVG Version: 6.00 Build 0)  -->
<svg version="1.1" id="격리_모드" xmlns="http://www.w3.org/2000/svg" xmlns:xlink="http://www.w3.org/1999/xlink" x="0px"
	 y="0px" width="14px" height="14px" viewBox="0 0 14 14" enable-background="new 0 0 14 14" xml:space="preserve">
<path fill="#7D7D7D" d="M7,0C3.1,0,0,3.1,0,7s3.1,7,7,7c3.9,0,7-3.1,7-7S10.9,0,7,0z M10,7.6l-3.3,3.3c-0.4,0.4-1,0.4-1.3,0
	c-0.4-0.4-0.4-1,0-1.3L8,6.9L5.3,4.2c-0.4-0.4-0.4-1,0-1.3c0.4-0.4,1-0.4,1.3,0L10,6.2c0.2,0.2,0.3,0.4,0.3,0.7
	C10.2,7.1,10.2,7.4,10,7.6z"/>
</svg>
