<?xml version="1.0" encoding="utf-8"?>
<!-- Generator: Adobe Illustrator 24.0.2, SVG Export Plug-In . SVG Version: 6.00 Build 0)  -->
<svg version="1.1" id="_x31_" xmlns="http://www.w3.org/2000/svg" xmlns:xlink="http://www.w3.org/1999/xlink" x="0px" y="0px"
	 viewBox="0 0 48.2 48.2" enable-background="new 0 0 48.2 48.2" xml:space="preserve">
<path d="M33,23.5c-0.6-0.4-1.4-0.4-2,0c-0.2-1-1-1.6-2-1.6c-0.4,0-0.8,0-1,0.2c0-0.2-0.2-0.2-0.2-0.4
	c-0.4-0.8-1.2-1-2-0.8c-0.2,0-0.2,0-0.4,0.2v-0.8h4.3c1.6,0,2.8-1.2,2.8-2.8V9.9c0-1.6-1.2-2.8-2.8-2.8H17c-1.6,0-2.8,1.2-2.8,2.8
	v7.3c0,1.6,1.2,2.8,2.8,2.8h4.3v5.5c-0.6,0.4-1.4,0.8-2,1.4c-0.6,0.8-1,1.6-1,2.4c0,0.2,0,0.4,0,0.6v0.2c0,0.4,0,0.6,0,1
	c0,1.8,0,3.8,1.4,5.5c0.6,0.8,1.4,1.2,2,1.8l0.2,0.2l0.4,1.2c-0.4,0.6-0.2,0.8,0,1c0.2,0.2,0.4,0.2,0.6,0.2h0.2
	c0.2,0,0.4-0.4,0.4-0.6v-1.4v-0.2c0-0.4,0-0.6-0.4-1c-0.4-0.2-0.6-0.6-1-0.8c-0.6-0.4-1-0.8-1.4-1.4c-0.8-1-0.8-2-0.8-3.2v-1
	c0-0.6,0-1.4,0-2c0-0.8,0.4-1.4,1.2-2c-0.2,0,0.2-0.2,0.4-0.2v3c0,0.4,0.4,0.6,0.6,0.6s0.6-0.2,0.6-0.6V16.6c0,0,0,0,0-0.2
	s0-0.4,0.2-0.6c0.2-0.2,0.6-0.2,0.8,0c0.2,0.2,0.4,0.4,0.4,0.8c0,0.2,0,0.4,0,0.4c0,0.2,0,0.4,0,0.6v5.3c0,0.2,0,0.4,0,0.6
	s0,0.2,0,0.4v3c0,0.4,0.4,0.6,0.6,0.6c0.4,0,0.6-0.2,0.6-0.6v-4c0-0.4,0.2-0.6,0.4-0.6c0.2-0.2,0.6-0.2,0.8,0s0.4,0.4,0.4,0.8
	c0,0.2,0,0.4,0,0.6c0,0.2,0,0.2,0,0.4v3c0,0.4,0.4,0.6,0.6,0.6c0.4,0,0.6-0.2,0.6-0.6v-3c0.2-0.8,0.4-1,0.8-1l0,0
	c0.2,0,0.4,0,0.6,0.2c0.2,0.2,0.2,0.8,0.2,1.4c0,0.2,0,0.2,0,0.2v0.2c0,0.4,0,0.8,0,1.2c0,0.2,0,0.4,0,0.6c0,0.4,0.4,0.6,0.6,0.6
	c0.4,0,0.6-0.2,0.6-0.6v-1.6c0-0.6,0.4-0.8,0.8-0.8l0,0c0.4,0,0.6,0.2,0.8,0.8c0,0.6,0,1.2,0,1.8c0,0.2,0,0.6,0,0.8v4
	c0,1.6,0,3.2-1,4.9c0,0.2-0.2,0.2-0.2,0.4c-0.2,0.4-0.4,0.8-0.6,1.2c0,0.4,0,0.8,0,1.4c0,0.2,0,0.4,0,0.6c0,0.4,0.4,0.6,0.6,0.6
	c0.4,0,0.6-0.2,0.6-0.6c0-0.2,0-0.4,0-0.6c0-0.4,0-0.8,0-1.2c0,0,0-0.2,0.2-0.2l0,0l0,0c0.2-0.4,0.4-0.8,0.6-1.2
	c0.8-1.8,0.8-3.6,0.8-5.5v-3.8c0-0.2,0-0.4,0-0.8C34.1,25.7,34.1,24.3,33,23.5z M25.3,15.8c-0.2-1-1-1.4-1.8-1.6
	c-0.8,0-1.6,0.4-2,1.2c-0.2,0.6,0,1,0,1.4c0,0.2,0,0.2,0,0.4v1.6H17c-0.8,0.2-1.6-0.6-1.6-1.4V9.9c0-0.8,0.8-1.6,1.6-1.6h12.6
	c0.8,0,1.6,0.8,1.6,1.6v7.3c0,0.8-0.8,1.6-1.6,1.6h-4.3v-1c0-0.2,0-0.4,0-0.6C25.3,16.8,25.3,16.4,25.3,15.8z M23.9,10.1
	c0,0.8,0,1.8,0,2.6s-1.2,0.8-1.2,0c0-0.8,0-1.8,0-2.6C22.7,9.1,23.9,9.1,23.9,10.1z M21.1,14c-0.2,0.4-0.6,0.6-1,0.4
	c-0.6-0.6-1.4-1-2-1.6c-0.4-0.2-0.4-0.6-0.2-0.8s0.6-0.4,0.8-0.2c0.6,0.6,1.4,1,2,1.6C21.1,13.4,21.3,13.8,21.1,14z M25.8,14
	c-0.2-0.2-0.2-0.6,0.2-0.8c0.6-0.6,1.4-1,2-1.6c0.2-0.2,0.8,0,0.8,0.2c0.2,0.4,0,0.6-0.2,0.8c-0.6,0.6-1.4,1-2,1.6
	C26.4,14.6,25.8,14.4,25.8,14z"/>
</svg>
