<?xml version="1.0" encoding="utf-8"?>
<!-- Generator: Adobe Illustrator 24.0.2, SVG Export Plug-In . SVG Version: 6.00 Build 0)  -->
<svg version="1.1" id="Layer_1" xmlns="http://www.w3.org/2000/svg" xmlns:xlink="http://www.w3.org/1999/xlink" x="0px" y="0px"
	 viewBox="0 0 48.2 48.2" enable-background="new 0 0 48.2 48.2" xml:space="preserve">
<path d="M42.9,7.1H10c-2.3,0-4.2,1.9-4.2,4.2V12H5.4C3,12,1.2,14,1.2,16.3v20.6c0,2.3,1.9,4.2,4.2,4.2h32.8
	c2.3,0,4.2-1.9,4.2-4.2v-0.7h0.4c2.3,0,4.2-1.9,4.2-4.2V11.3C47.1,9,45.2,7.1,42.9,7.1z M40.3,34v1.1v1.1v0.7c0,1.2-1,2.1-2.1,2.1
	H5.4c-1.2,0-2.1-1-2.1-2.1V24.2h2.5h1.1h1.1h32.4V34z M40.3,23.1H7.9H6.8H5.8H3.3v-3.6h2.5h1.1h1.1h32.4V23.1z M40.3,18.5H7.9H6.8
	H5.8H3.3v-2.2c0-1.2,1-2.1,2.1-2.1h0.4h1.1h1.1h30.3c1.2,0,2.1,1,2.1,2.1V18.5z M45,31.9c0,1.2-1,2.1-2.1,2.1h-0.4V16.3
	c0-2.3-1.9-4.2-4.2-4.2H7.9v-0.7c0-1.2,1-2.1,2.1-2.1h32.8c1.2,0,2.1,1,2.1,2.1L45,31.9L45,31.9z M28.4,35.1
	c0.2,0.4,0.5,0.8,0.9,1.1c0.5,0.3,1,0.5,1.6,0.5s1.2-0.2,1.6-0.5c0,0,0,0,0.1,0c0,0,0,0,0.1,0c0.5,0.3,1,0.5,1.6,0.5
	c0.6,0,1.2-0.2,1.6-0.5c0.4-0.3,0.7-0.6,0.9-1.1c0.2-0.3,0.3-0.7,0.3-1.1c0-0.1,0-0.2,0-0.2c0-1.6-1.3-2.9-2.9-2.9
	c-0.6,0-1.2,0.2-1.7,0.5c-0.5-0.3-1.1-0.5-1.7-0.5c-1.6,0-2.9,1.3-2.9,2.9c0,0.1,0,0.2,0,0.2C28.1,34.4,28.2,34.7,28.4,35.1z
	 M33.3,32.2c0.3-0.2,0.6-0.3,1-0.3c1,0,1.8,0.8,1.8,1.8c0,0.1,0,0.2,0,0.2c-0.1,0.4-0.2,0.8-0.5,1.1c-0.3,0.3-0.8,0.5-1.3,0.5
	c-0.3,0-0.7-0.1-1-0.3c0-0.1,0.1-0.2,0.1-0.2c0.2-0.3,0.3-0.7,0.3-1.1c0-0.1,0-0.2,0-0.2C33.8,33.2,33.6,32.7,33.3,32.2z M30.9,32
	c0.3,0,0.7,0.1,1,0.3c0.3,0.2,0.6,0.5,0.7,0.9c0.1,0.2,0.1,0.4,0.1,0.7c0,0.1,0,0.2,0,0.2c0,0.1-0.1,0.3-0.1,0.4
	c-0.1,0.2-0.2,0.4-0.4,0.7c-0.1,0.1-0.2,0.2-0.3,0.2c-0.3,0.2-0.6,0.3-1,0.3c-0.5,0-0.9-0.2-1.3-0.5c-0.3-0.3-0.5-0.7-0.5-1.1
	c0-0.1,0-0.2,0-0.2C29.1,32.8,29.9,32,30.9,32z M20.2,33.4c0,0.2-0.1,0.4-0.2,0.6s-0.3,0.2-0.5,0.2H7.9h-1c-0.2,0-0.3,0-0.4-0.1
	c-0.2-0.1-0.3-0.4-0.3-0.7c0,0,0,0,0-0.1c0-0.4,0.4-0.7,0.8-0.7h0.1H8h11.4C19.9,32.6,20.2,33,20.2,33.4z M7.9,28.3h17.4
	c0.4,0,0.8,0.3,0.8,0.8s-0.3,0.8-0.8,0.8H7.9H6.8c-0.4,0-0.8-0.3-0.8-0.8c0-0.4,0.3-0.8,0.8-0.8C6.8,28.3,7.9,28.3,7.9,28.3z"/>
</svg>
