<?xml version="1.0" encoding="utf-8"?>
<!-- Generator: Adobe Illustrator 24.0.2, SVG Export Plug-In . SVG Version: 6.00 Build 0)  -->
<svg version="1.1" xmlns="http://www.w3.org/2000/svg" xmlns:xlink="http://www.w3.org/1999/xlink" x="0px" y="0px"
	 viewBox="0 0 48.2 48.2" enable-background="new 0 0 48.2 48.2" xml:space="preserve">
<path d="M5.7,24.4h5.4v15.7c0,0.5,0.4,0.9,0.9,0.9h7.8c0.5,0,0.9-0.4,0.9-0.9v-9.9h6.8v9.9c0,0.5,0.4,0.9,0.9,0.9
	h7.8c0.5,0,0.9-0.4,0.9-0.9V24.4h5.4l0,0c0.5,0,0.9-0.4,0.9-0.9c0-0.3-0.1-0.6-0.4-0.7L24.7,7.3c-0.4-0.3-0.9-0.3-1.2,0L5.1,22.8
	c-0.3,0.2-0.4,0.6-0.3,1C5,24.2,5.3,24.4,5.7,24.4z M24.1,9.2L40,22.6h-3.8c-0.5,0-0.9,0.4-0.9,0.9v15.7h-6v-9.9
	c0-0.5-0.4-0.9-0.9-0.9h-8.6c-0.5,0-0.9,0.4-0.9,0.9v9.9h-6V23.5c0-0.5-0.4-0.9-0.9-0.9H8.2L24.1,9.2z"/>
</svg>
