<?xml version="1.0" encoding="utf-8"?>
<!-- Generator: Adobe Illustrator 24.0.2, SVG Export Plug-In . SVG Version: 6.00 Build 0)  -->
<svg version="1.1" id="격리_모드" xmlns="http://www.w3.org/2000/svg" xmlns:xlink="http://www.w3.org/1999/xlink" x="0px"
	 y="0px" width="443.5px" height="151.2px" viewBox="0 0 443.5 151.2" enable-background="new 0 0 443.5 151.2"
	 xml:space="preserve">
<path fill="#000100" d="M174.5,53.9h15.7l0.1,9.6h17.9c0,0-2.9-43.8-3.2-47.9c-0.1-2.5-0.4-2.5-3.7-2.5h-18c-3.3,0-3.5,0-5,2.5
	c-2.3,4.1-26.6,47.9-26.6,47.9h17.9L174.5,53.9z M188.6,25.6h1.4l0.1,14.6h-8.9L188.6,25.6z M229.1,50.3h14.6
	c10.4,0,17.1-6.5,18.8-13.5l2.5-10.1c1.7-7-1.8-13.5-12.2-13.5h-31.5L209,63.5h16.9L229.1,50.3z M235,26.3h9.9
	c2.5,0,2.9,1.5,2.4,3.2l-1,4.3c-0.4,1.7-1.5,3.2-4,3.2h-9.9L235,26.3z M274.6,63.5l3.2-13.3h14.6c10.4,0,17.1-6.5,18.8-13.5
	l2.5-10.1c1.7-7-1.8-13.5-12.2-13.5h-31.5l-12.4,50.4L274.6,63.5L274.6,63.5z M283.8,26.3h9.9c2.5,0,3,1.5,2.5,3.2l-1,4.3
	c-0.4,1.7-1.5,3.2-4,3.2h-9.9L283.8,26.3z M189.1,78.6h-32.2L144.5,129h32.2c10.4,0,17.1-6.6,18.8-13.5l5.8-23.3
	C203,85.1,199.5,78.6,189.1,78.6z M183.6,95l-4.3,17.6c-0.4,1.7-1.6,3.2-4.1,3.2h-10.7l5.9-23.9h10.7
	C183.7,91.8,184.1,93.3,183.6,95z M239.4,78.6h-17.3c-10.4,0-17.1,6.6-18.9,13.5l-5.7,23.3c-1.7,7,1.7,13.5,12.1,13.5h17.3
	c10.4,0,17.1-6.6,18.9-13.5l5.7-23.3C253.2,85.1,249.7,78.6,239.4,78.6z M234,95l-4.4,17.6c-0.4,1.7-1.5,3.2-4,3.2h-7.9
	c-2.5,0-2.9-1.5-2.5-3.2l4.3-17.6c0.4-1.7,1.6-3.2,4.1-3.2h7.9C234,91.8,234.3,93.3,234,95z M265.4,111.9c-0.4,1.7,0,3.2,2.5,3.2
	h21.3l-3,13.1c0,0-15,1.2-26.5,1.2c-10.4,0-13.8-6.6-12.1-13.5l6-24.2c1.7-7,8.3-13.5,18.7-13.5c11.5,0,25.9,0.9,25.9,0.9l-3.5,13.4
	h-21.3c-2.5,0-3.7,1.5-4,3.2L265.4,111.9z M344.1,92.3h-15.3l-9.1,36.7h-16.9l9.1-36.7h-15.3l3.4-13.7h47.5L344.1,92.3z M394.1,92.1
	c1.7-7-1.7-13.5-12.1-13.5h-17.3c-10.4,0-17.1,6.6-18.9,13.5l-5.7,23.3c-1.7,7,1.7,13.5,12.1,13.5h17.3c10.4,0,17.1-6.6,18.9-13.5
	L394.1,92.1z M376.5,95l-4.4,17.6c-0.4,1.7-1.5,3.2-4,3.2h-7.9c-2.5,0-3-1.5-2.5-3.2L362,95c0.4-1.7,1.6-3.2,4.1-3.2h7.9
	C376.5,91.8,376.9,93.3,376.5,95z M430.9,78.7h-31.5L387,129.2h16.9l3.6-14.7h7.1l2.5,14.7h17.4l-2.7-16.9c4.8-2.5,8-6.8,9.1-11.3
	l2.2-8.6C444.8,85.3,441.3,78.7,430.9,78.7z M425.4,95.2l-0.9,3.6c-0.4,1.7-1.5,3.2-4,3.2h-9.9L413,92h9.9
	C425.5,92,425.9,93.5,425.4,95.2z M376.5,43.3h-52.6l2.7-10.2h52.6L376.5,43.3z M131.9,0H92.6c-6.8,0-12.3,5.6-12.3,12.4v19.9
	c0,6.9,5.5,12.4,12.2,12.4h9.6l7.9,8.3c0.5,0.5,1.3,0.9,2,0.9c0,0,0,0,0,0c0.8,0,1.5-0.3,2-0.8l8.2-8.3h9.7
	c6.8,0,12.2-5.6,12.2-12.4V12.4C144.2,5.6,138.7,0,131.9,0z M138.5,32.3c0,3.7-2.9,6.7-6.6,6.7h-10.9c-0.8,0-1.5,0.3-2,0.8l-7,7.1
	l-6.7-7c-0.5-0.6-1.3-0.9-2-0.9H92.6c-3.6,0-6.6-3-6.6-6.7V12.4c0-3.7,2.9-6.7,6.6-6.7h39.4c3.6,0,6.6,3,6.6,6.7L138.5,32.3
	L138.5,32.3z M49.8,98.6h-30c-3.8,0-7-3.1-7-7V31.4c0-3.8,3.1-7,7-7h29.9c3.8,0,7,3.1,7,7v60.2C56.8,95.4,53.7,98.6,49.8,98.6z
	 M34.9,102.5c3.1,0,5.6,2.5,5.6,5.6c0,3.1-2.5,5.6-5.6,5.6s-5.6-2.5-5.6-5.6C29.2,105,31.8,102.5,34.9,102.5z M96,65.8
	c0,2.6-2.1,4.7-4.7,4.7s-4.7-2.1-4.7-4.7s2.1-4.7,4.7-4.7C93.9,61.1,96,63.2,96,65.8z M6.4,64.5H0v-40C0,16.5,6.2,10,14.1,9.6
	c1-1.4,2.6-2.3,4.4-2.3h8.7c3,0,5.4,2.4,5.4,5.4c0,3-2.5,5.4-5.4,5.4h-8.7c-1.8,0-3.4-0.9-4.4-2.2c-4.3,0.4-7.7,4-7.7,8.4L6.4,64.5
	L6.4,64.5z M37.3,12.8c0-3,2.4-5.4,5.4-5.4h8.7c1.8,0,3.4,0.9,4.4,2.3c7.8,0.4,14,6.9,14,14.8v40h-6.4v-40c0-4.4-3.3-8-7.6-8.4
	c-1,1.3-2.6,2.2-4.3,2.2h-8.7C39.7,18.2,37.3,15.8,37.3,12.8z M91.3,52.4c-7.4,0-13.4,6-13.4,13.4c0,6.4,4.5,11.7,10.5,13.1V119
	c0,14-11.5,25.8-25.2,25.8c-11.9,0-22.2-8.9-24.6-20.5h16.3c8.2,0,14.8-6.7,14.8-14.8v-42h-6.4v42c0,4.7-3.8,8.4-8.4,8.4H14.8
	c-4.6,0-8.4-3.8-8.4-8.4v-42H0v42c0,8.2,6.7,14.8,14.8,14.8h17.3c2.5,15,15.8,26.9,31.1,26.9c17.1,0,31.6-14.7,31.6-32.2V78.7
	c5.7-1.5,9.9-6.8,9.9-12.9C104.7,58.4,98.7,52.4,91.3,52.4z M91.3,73.4c-4.2,0-7.6-3.4-7.6-7.6s3.4-7.6,7.6-7.6
	c4.2,0,7.6,3.4,7.6,7.6C98.9,70,95.5,73.4,91.3,73.4z M110.4,13c-0.4-1.5-1.3-2.2-2.8-2.2h-5.8c-1.5,0-2.5,0.7-2.8,2.2l-4.3,16.9
	c-0.7,2.6-0.1,4.2,1.7,4.6c1.9,0.5,3.2-0.6,3.9-3.2l0.3-1.1h8.3l0.3,1.1c0.6,2.6,1.9,3.6,3.9,3.2c1.8-0.4,2.4-2,1.7-4.6L110.4,13z
	 M101.7,25.1l2.3-9.4h1.3l2.3,9.4H101.7z M126.9,14.3v16.6c0,2.4-1,3.7-3,3.7h-0.1c-2,0-3-1.2-3-3.7V14.3c0-2.4,1-3.7,3-3.7h0.1
	C125.9,10.7,126.9,11.9,126.9,14.3z"/>
</svg>
