<?xml version="1.0" encoding="utf-8"?>
<!-- Generator: Adobe Illustrator 24.0.2, SVG Export Plug-In . SVG Version: 6.00 Build 0)  -->
<svg version="1.1" id="격리_모드" xmlns="http://www.w3.org/2000/svg" xmlns:xlink="http://www.w3.org/1999/xlink" x="0px"
	 y="0px" width="17px" height="19px" viewBox="0 0 17 19" enable-background="new 0 0 17 19" xml:space="preserve">
<path d="M12.8,4.3C12.8,4.3,12.8,4.3,12.8,4.3c-0.1,0-0.1,0-0.1-0.1l-0.5-0.6h-0.7c-0.5,0-0.8-0.4-0.8-0.8V1.5
	c0-0.5,0.4-0.8,0.8-0.8h2.7C14.7,0.7,15,1,15,1.5v1.4c0,0.5-0.4,0.8-0.8,0.8h-0.7L13,4.3C12.9,4.3,12.9,4.3,12.8,4.3z M11.5,1.1
	c-0.2,0-0.4,0.2-0.4,0.5v1.4c0,0.3,0.2,0.5,0.4,0.5h0.7c0.1,0,0.1,0,0.1,0.1l0.5,0.5l0.5-0.5c0,0,0.1-0.1,0.1-0.1h0.7
	c0.2,0,0.4-0.2,0.4-0.5V1.5c0-0.3-0.2-0.5-0.4-0.5H11.5z M9.1,6.9V2.8c0-0.3-0.2-0.5-0.5-0.5h-2c-0.3,0-0.5,0.2-0.5,0.5v4.1
	c0,0.3,0.2,0.5,0.5,0.5h2C8.9,7.4,9.1,7.2,9.1,6.9 M7.2,8c0,0.2,0.2,0.4,0.4,0.4C7.8,8.4,8,8.2,8,8c0-0.2-0.2-0.4-0.4-0.4
	C7.4,7.6,7.2,7.8,7.2,8 M11.4,4.8c-0.2,0-0.3,0.1-0.3,0.3c0,0.2,0.1,0.3,0.3,0.3c0.2,0,0.3-0.1,0.3-0.3C11.8,5,11.6,4.8,11.4,4.8
	 M5.6,5.1V2.3c0-0.3,0.2-0.5,0.5-0.6c0.1,0.1,0.2,0.1,0.3,0.1h0.6c0.2,0,0.4-0.2,0.4-0.4c0-0.2-0.2-0.4-0.4-0.4H6.5
	c-0.1,0-0.2,0.1-0.3,0.2c-0.5,0-1,0.5-1,1v2.7H5.6z M8.1,1.9h0.6c0.1,0,0.2-0.1,0.3-0.1c0.3,0,0.5,0.3,0.5,0.6v2.7H10V2.3
	c0-0.5-0.4-1-1-1C8.9,1.2,8.8,1.2,8.7,1.2H8.1c-0.2,0-0.4,0.2-0.4,0.4C7.7,1.7,7.9,1.9,8.1,1.9 M11.4,4.2c-0.5,0-0.9,0.4-0.9,0.9
	c0,0.4,0.3,0.8,0.7,0.9v2.7c0,1-0.8,1.8-1.7,1.8c-0.8,0-1.5-0.6-1.7-1.4H9c0.6,0,1-0.5,1-1V5.3H9.5v2.9c0,0.3-0.3,0.6-0.6,0.6H6.2
	c-0.3,0-0.6-0.3-0.6-0.6V5.3H5.2v2.9c0,0.6,0.5,1,1,1h1.2c0.2,1,1.1,1.8,2.1,1.8c1.2,0,2.2-1,2.2-2.2V6c0.4-0.1,0.7-0.5,0.7-0.9
	C12.3,4.6,11.9,4.2,11.4,4.2 M11.4,5.7c-0.3,0-0.5-0.2-0.5-0.5c0-0.3,0.2-0.5,0.5-0.5c0.3,0,0.5,0.2,0.5,0.5
	C12,5.4,11.7,5.7,11.4,5.7 M5.3,14.3H4.5l-0.2,0.5H3.3c0,0,1.2-2.2,1.3-2.4c0.1-0.1,0.1-0.1,0.2-0.1h0.9c0.2,0,0.2,0,0.2,0.1
	c0,0.2,0.2,2.4,0.2,2.4H5.3L5.3,14.3z M4.8,13.7h0.4l0-0.7H5.2L4.8,13.7z M7,14.8H6.2l0.6-2.5h1.6c0.5,0,0.7,0.3,0.6,0.7l-0.1,0.5
	c-0.1,0.3-0.4,0.7-0.9,0.7H7.2L7,14.8z M8.1,13.3l0.1-0.2C8.2,13,8.1,13,8,13H7.5l-0.1,0.5h0.5C8,13.5,8.1,13.4,8.1,13.3 M9.5,14.8
	H8.7l0.6-2.5h1.6c0.5,0,0.7,0.3,0.6,0.7l-0.1,0.5c-0.1,0.3-0.4,0.7-0.9,0.7H9.7L9.5,14.8z M10.5,13.3l0.1-0.2c0-0.1,0-0.2-0.1-0.2
	H10l-0.1,0.5h0.5C10.4,13.5,10.5,13.4,10.5,13.3 M1.6,15.8h1.6c0.5,0,0.7,0.3,0.6,0.7l-0.3,1.2c-0.1,0.4-0.4,0.7-0.9,0.7H1L1.6,15.8
	z M3,16.6c0-0.1,0-0.2-0.1-0.2H2.3L2,17.7h0.5c0.1,0,0.2-0.1,0.2-0.2L3,16.6z M3.7,17.6l0.3-1.2c0.1-0.3,0.4-0.7,0.9-0.7h0.9
	c0.5,0,0.7,0.3,0.6,0.7l-0.3,1.2C6,18,5.7,18.3,5.1,18.3H4.3C3.7,18.3,3.6,18,3.7,17.6 M4.8,16.6l-0.2,0.9c0,0.1,0,0.2,0.1,0.2h0.4
	c0.1,0,0.2-0.1,0.2-0.2l0.2-0.9c0-0.1,0-0.2-0.1-0.2H5C4.8,16.5,4.8,16.5,4.8,16.6 M8.7,15.8c0,0-0.7,0-1.3,0
	c-0.5,0-0.9,0.3-0.9,0.7l-0.3,1.2c-0.1,0.3,0.1,0.7,0.6,0.7c0.6,0,1.3-0.1,1.3-0.1l0.2-0.7H7.2c-0.1,0-0.1-0.1-0.1-0.2l0.2-0.8
	c0-0.1,0.1-0.2,0.2-0.2h1.1L8.7,15.8z M11.2,15.8H8.8l-0.2,0.7h0.8l-0.5,1.8h0.8l0.5-1.8H11L11.2,15.8z M10.8,17.6l0.3-1.2
	c0.1-0.3,0.4-0.7,0.9-0.7h0.9c0.5,0,0.7,0.3,0.6,0.7l-0.3,1.2c-0.1,0.4-0.4,0.7-0.9,0.7h-0.9C10.9,18.3,10.7,18,10.8,17.6
	 M11.9,16.6l-0.2,0.9c0,0.1,0,0.2,0.1,0.2h0.4c0.1,0,0.2-0.1,0.2-0.2l0.2-0.9c0-0.1,0-0.2-0.1-0.2h-0.4C12,16.5,11.9,16.5,11.9,16.6
	 M14,18.3h-0.8l0.6-2.5h1.6c0.5,0,0.7,0.3,0.6,0.7l-0.1,0.4c-0.1,0.2-0.2,0.4-0.5,0.6l0.1,0.8h-0.9l-0.1-0.7h-0.4L14,18.3z
	 M15.1,16.8l0-0.2c0-0.1,0-0.2-0.1-0.2h-0.5L14.4,17h0.5C15,17,15,16.9,15.1,16.8 M14.1,13.3H12l-0.1,0.5h2.1L14.1,13.3z M12.6,2.7
	h-0.6l0,0.1C12,3,11.9,3,11.8,3c-0.1,0-0.2-0.1-0.1-0.3L12,1.5c0-0.1,0.1-0.1,0.2-0.1h0.4c0.1,0,0.2,0,0.2,0.1L13,2.7
	c0,0.2,0,0.3-0.1,0.3C12.8,3,12.7,3,12.6,2.7L12.6,2.7z M12.1,2.4h0.4l-0.2-0.6h-0.1L12.1,2.4z M13.4,2.8V1.6c0-0.2,0.1-0.2,0.2-0.2
	h0c0.1,0,0.2,0.1,0.2,0.2v1.1c0,0.2-0.1,0.2-0.2,0.2h0C13.5,3,13.4,2.9,13.4,2.8z"/>
</svg>
