<?xml version="1.0" encoding="utf-8"?>
<!-- Generator: Adobe Illustrator 24.0.2, SVG Export Plug-In . SVG Version: 6.00 Build 0)  -->
<svg version="1.1" id="_x31_" xmlns="http://www.w3.org/2000/svg" xmlns:xlink="http://www.w3.org/1999/xlink" x="0px" y="0px"
	 viewBox="0 0 48.2 48.2" enable-background="new 0 0 48.2 48.2" xml:space="preserve">
<path d="M28,24.6v-4.5c0-1-0.9-1.9-1.9-1.9h-6.6v-1.6c0-0.5-0.3-1-0.9-1.4c-0.5-0.3-1-0.3-1.6,0l-9.5,5.7
	c-0.5,0.2-0.9,0.7-0.9,1.4c0,0.5,0.3,1,0.9,1.4l9.5,5.7c0.2,0.2,0.5,0.2,0.9,0.2s0.5,0,0.9-0.2c0.5-0.3,0.9-0.9,0.9-1.4v-1.4h6.6
	C27.2,26.5,28,25.6,28,24.6z M18,24.9V28l-9.7-5.7l9.5-5.7v3.1H26c0.2,0,0.3,0.2,0.3,0.3v4.5c0,0.2-0.2,0.3-0.3,0.3
	C26,24.9,18,24.9,18,24.9z M41,7.3c-0.2,0-0.2-0.2-0.3-0.2c-3.5,0-6.9,0-10.4,0c-2.1,0-4,0-6,0c-1.6,0-3.1,0.2-3.3,2.1
	c-0.2,1.9,0,3.8,0,5.7c0,1,1.6,1,1.6,0c0-1.7,0-3.5,0-5c-0.2-1.4,0.9-1.2,1.9-1.2c4.1,0,8.3,0,12.4,0c-1.2,0.5-2.4,1-3.6,1.7
	c-0.7,0.3-1.7,0.7-2.4,1.2c-0.7,0.5-0.7,1.4-0.7,2.2c0,5.7,0,11.4,0,17.1c0,1.7,0,3.3,0,5c-0.9,0-1.6,0-2.4,0c-1.4,0-2.9,0.2-4.5,0
	c-1.2-0.2-0.9-1.4-0.9-2.2c0-1.2,0-2.6,0-3.8c0-1-1.6-1-1.6,0c0,1.4,0,2.9,0,4.3c0,1.6,0.2,3.3,2.1,3.5c2.4,0.2,4.8,0,7.2,0
	c0,1.6,0,3.3,1.7,3.5c1.2,0.2,2.8-0.9,4-1.4c1.4-0.5,2.9-1,4.3-1.9c1-0.5,1.4-1.6,1.4-2.6c0-6.7,0-13.3,0-20c0-2.4,0-4.7,0-7.1l0,0
	l0,0C41.3,7.7,41.1,7.3,41,7.3z M39.6,35.3c0,0.9-0.7,1-1.4,1.4c-1.7,0.7-3.5,1.6-5.2,2.2c-0.5,0.2-1.2,0.7-1.4,0
	c-0.2-0.5,0-1.7,0-2.2c0-4.5,0-9.1,0-13.6c0-2.8,0-5.3,0-8.1c0-0.5-0.2-1.2,0-1.7c0.2-0.7,1.4-0.9,1.9-1c2.1-0.9,4.1-1.9,6-2.8
	c0,4.7,0,9.3,0,14.2c0,3.1,0,6.4,0,9.5C39.6,33.7,39.8,34.6,39.6,35.3z"/>
</svg>
