<?xml version="1.0" encoding="utf-8"?>
<!-- Generator: Adobe Illustrator 24.0.2, SVG Export Plug-In . SVG Version: 6.00 Build 0)  -->
<svg version="1.1" id="Layer_1" xmlns="http://www.w3.org/2000/svg" xmlns:xlink="http://www.w3.org/1999/xlink" x="0px" y="0px"
	 viewBox="0 0 48.2 48.2" enable-background="new 0 0 48.2 48.2" xml:space="preserve">
<path d="M35.1,37.4c0-2-1.7-3.7-3.7-3.7c-1.7,0-3.2,1.2-3.5,2.8h-1.7c-0.4-1.6-1.8-2.8-3.5-2.8
	c-1.7,0-3.2,1.2-3.5,2.8H19v-4.9h16.1c0.4,0,0.6-0.2,0.8-0.5l7.4-13.8c0.1-0.3,0.1-0.6,0-0.9c-0.2-0.3-0.5-0.5-0.8-0.5H13.9
	l-2.8-8.2c-0.1-0.4-0.5-0.6-0.9-0.6H5.8c-0.5,0-0.9,0.5-0.9,1S5.3,9,5.8,9h3.8l7.5,21.9v6.6c0,0.5,0.4,0.9,0.9,0.9h1
	c0.4,1.6,1.8,2.8,3.5,2.8c1.7,0,3.2-1.2,3.5-2.8h1.7c0.4,1.6,1.8,2.8,3.5,2.8C33.4,41.1,35.1,39.4,35.1,37.4z M41,17.8l-6.4,12H18.7
	l-4.1-12H41z M22.6,39.2c-1,0-1.8-0.8-1.8-1.8s0.8-1.8,1.8-1.8c1,0,1.8,0.8,1.8,1.8S23.6,39.2,22.6,39.2z M31.4,39.2
	c-1,0-1.8-0.8-1.8-1.8s0.8-1.8,1.8-1.8c1,0,1.8,0.8,1.8,1.8S32.4,39.2,31.4,39.2z"/>
</svg>
