<?xml version="1.0" encoding="utf-8"?>
<!-- Generator: Adobe Illustrator 24.0.2, SVG Export Plug-In . SVG Version: 6.00 Build 0)  -->
<svg version="1.1" id="Layer_1" xmlns="http://www.w3.org/2000/svg" xmlns:xlink="http://www.w3.org/1999/xlink" x="0px" y="0px"
	 viewBox="0 0 48.2 48.2" enable-background="new 0 0 48.2 48.2" xml:space="preserve">
<path d="M38,7H13.8C11,7,8.7,9.2,8.4,11.9c-2.2,0.7-3.7,2.8-3.7,5.1v12.6c0,3,2.4,5.4,5.4,5.4h3.1l3.4,5.6
	c0.2,0.3,0.5,0.4,0.8,0.4c0.3,0,0.6-0.2,0.8-0.4l3.4-5.6h12.6c2.8,0,5.1-2.1,5.4-4.9c2.2-0.7,3.7-2.8,3.7-5.1V12.4
	C43.4,9.4,41,7,38,7z M37.9,29.6c0,2-1.6,3.6-3.6,3.6H21.1c-0.3,0-0.6,0.2-0.8,0.4l-2.9,4.8l-2.9-4.8c-0.2-0.3-0.5-0.4-0.8-0.4h-3.6
	c-2,0-3.6-1.6-3.6-3.6V17c0-1.7,1.2-3.2,2.9-3.5c0.2,0,0.4-0.1,0.6-0.1h24.2c2,0,3.6,1.6,3.6,3.6v12.4L37.9,29.6L37.9,29.6z
	 M41.5,25c0,1.3-0.7,2.5-1.8,3.1V17c0-3-2.4-5.4-5.4-5.4H10.4c0.4-1.6,1.8-2.8,3.5-2.8H38c2,0,3.6,1.6,3.6,3.6L41.5,25L41.5,25z
	 M14.2,22.4c-0.5,0-0.9,0.4-0.9,0.9s0.4,0.9,0.9,0.9s0.9-0.4,0.9-0.9C15.1,22.8,14.7,22.4,14.2,22.4z M22.2,22.4
	c-0.5,0-0.9,0.4-0.9,0.9s0.4,0.9,0.9,0.9s0.9-0.4,0.9-0.9C23.2,22.8,22.7,22.4,22.2,22.4z M30.3,22.4c-0.5,0-0.9,0.4-0.9,0.9
	s0.4,0.9,0.9,0.9c0.5,0,0.9-0.4,0.9-0.9C31.2,22.8,30.8,22.4,30.3,22.4z"/>
</svg>
