<?xml version="1.0" encoding="utf-8"?>
<!-- Generator: Adobe Illustrator 24.0.2, SVG Export Plug-In . SVG Version: 6.00 Build 0)  -->
<svg version="1.1" id="_xF91C_迹_x5F_1" xmlns="http://www.w3.org/2000/svg" xmlns:xlink="http://www.w3.org/1999/xlink" x="0px"
	 y="0px" viewBox="0 0 48.2 48.2" enable-background="new 0 0 48.2 48.2" xml:space="preserve">
<path d="M32.8,27.7h1.5v13.4H6.4v-34h27.9v7.5h-1.5v-6H7.9v30.9h24.9V27.7z M41.8,16.2v1.1L27.4,31.5l-5.5,2.7v0.4
	h-10v-1.5h8.7l2.9-5.8l14-14.2h1.1L41.8,16.2z M27.1,29.7l10.6-10.6L35.6,17L25,27.7L27.1,29.7z M22.7,32.1l3.2-1.5L24.3,29
	L22.7,32.1z M40.1,16.7L38,14.6l-1.3,1.3l2.1,2.1L40.1,16.7z M11.9,22.3v1.5h8.2v-1.5H11.9z M11.9,29.2h9.9v-1.5h-9.9V29.2z
	 M23.6,17H11.9v1.5h11.7V17z"/>
</svg>
