<?xml version="1.0" encoding="utf-8"?>
<!-- Generator: Adobe Illustrator 24.0.2, SVG Export Plug-In . SVG Version: 6.00 Build 0)  -->
<svg version="1.1" id="Layer_1" xmlns="http://www.w3.org/2000/svg" xmlns:xlink="http://www.w3.org/1999/xlink" x="0px" y="0px"
	 viewBox="0 0 48.2 48.2" enable-background="new 0 0 48.2 48.2" xml:space="preserve">
<path d="M9.3,30.9V40c0,0.6,0.5,1.1,1,1.1h27.4c0.6,0,1-0.5,1-1v-9.2c0-2.5-1.2-4.7-3.3-6.1c-1.5-0.9-3-1.7-4.7-2.2
	c2.2-2.4,3-5.7,2-9c-1.2-3.9-4.6-6.4-8.7-6.5c0,0,0,0,0,0c-4,0-7.5,2.6-8.7,6.5c-1,3.2-0.2,6.6,2,9c-1.6,0.6-3.2,1.3-4.7,2.2
	C10.6,26.1,9.3,28.4,9.3,30.9z M13.8,26.5c1.8-1.1,3.8-2,5.9-2.5c0.4-0.1,0.7-0.4,0.8-0.8c0.1-0.4-0.1-0.8-0.4-1
	c-3.2-2.2-3.5-5.6-2.7-8c0.8-2.4,2.9-5,6.8-5.1c3.2,0,5.8,2,6.8,5.1c0.8,2.4,0.4,5.8-2.7,8c-0.3,0.2-0.5,0.6-0.4,1
	c0.1,0.4,0.4,0.7,0.8,0.8c2.1,0.5,4.1,1.3,5.9,2.5c1.5,0.9,2.4,2.6,2.4,4.3V39H11.4v-8.1C11.4,29.1,12.3,27.5,13.8,26.5z"/>
</svg>
